<?xml version="1.0" encoding="UTF-8" standalone="no"?>
<svg width="451px" height="330px" viewBox="0 0 451 330" version="1.1" xmlns="http://www.w3.org/2000/svg" xmlns:xlink="http://www.w3.org/1999/xlink" xmlns:sketch="http://www.bohemiancoding.com/sketch/ns">
    <!-- Generator: Sketch 3.1 (8751) - http://www.bohemiancoding.com/sketch -->
    <title>Step 2</title>
    <desc>Created with Sketch.</desc>
    <defs></defs>
    <g id="Page-1" stroke="none" stroke-width="1" fill="none" fill-rule="evenodd" sketch:type="MSPage">
        <g id="Artboard-6" sketch:type="MSArtboardGroup" transform="translate(-574.000000, -1272.000000)">
            <g id="Step-2" sketch:type="MSLayerGroup" transform="translate(575.000000, 1272.000000)">
                <rect id="Rectangle-path" fill="#E9EEF1" sketch:type="MSShapeGroup" x="3.77358491" y="25.7478261" width="441.509434" height="92.5014493"></rect>
                <rect id="Rectangle-path" fill="#E9EEF1" sketch:type="MSShapeGroup" x="71.6981132" y="134.46087" width="302.924528" height="85.826087"></rect>
                <path d="M449.90566,28.0365217 L-0.0943396226,28.0365217 L-0.0943396226,4.95884058 C-0.0943396226,2.19333333 2.64150943,0.381449275 5.37735849,0.381449275 L445.377358,0.381449275 C448.113208,0.381449275 449.90566,2.19333333 449.90566,4.95884058 L449.90566,28.0365217 L449.90566,28.0365217 Z" id="Shape" fill="#D6D6D6" sketch:type="MSShapeGroup"></path>
                <path d="M445.09434,8.01043478 C445.283019,8.01043478 445.188679,8.1057971 445.188679,8.29652174 L445.188679,324.327246 C445.188679,324.517971 445.09434,324.613333 444.90566,324.613333 L4.90566038,324.613333 C4.71698113,324.613333 4.62264151,324.517971 4.62264151,324.327246 L4.62264151,8.29652174 C4.62264151,8.1057971 4.71698113,8.01043478 4.90566038,8.01043478 L445.188679,8.01043478 L445.09434,8.01043478 Z M444.90566,3.24231884 L4.90566038,3.24231884 C2.16981132,3.24231884 -0.0943396226,5.53101449 -0.0943396226,8.29652174 L-0.0943396226,324.327246 C-0.0943396226,327.092754 2.16981132,329.381449 4.90566038,329.381449 L444.90566,329.381449 C447.641509,329.381449 449.90566,327.092754 449.90566,324.327246 L449.90566,8.29652174 C449.90566,5.53101449 447.641509,3.24231884 444.90566,3.24231884 L444.90566,3.24231884 L444.90566,3.24231884 Z" id="Shape" fill="#D6D6D6" sketch:type="MSShapeGroup"></path>
                <path d="M412.169811,13.8275362 C412.169811,16.4023188 410.09434,18.5002899 407.54717,18.5002899 L80.9433962,18.5002899 C78.3962264,18.5002899 76.3207547,16.4023188 76.3207547,13.8275362 L76.3207547,13.6368116 C76.3207547,11.062029 78.3962264,8.96405797 80.9433962,8.96405797 L407.54717,8.96405797 C410.09434,8.96405797 412.169811,11.062029 412.169811,13.6368116 L412.169811,13.8275362 L412.169811,13.8275362 Z" id="Shape" fill="#FFFFFF" sketch:type="MSShapeGroup"></path>
                <path d="M243.584906,164.404638 L243.584906,190.057101 C243.584906,191.010725 243.301887,191.773623 242.641509,192.441159 C241.981132,193.108696 241.226415,193.394783 240.283019,193.394783 L206.886792,193.394783 C205.943396,193.394783 205.188679,193.108696 204.528302,192.441159 C203.867925,191.773623 203.584906,191.010725 203.584906,190.057101 L203.584906,164.404638 C203.584906,163.451014 203.867925,162.688116 204.528302,162.02058 C205.188679,161.353043 205.943396,161.066957 206.886792,161.066957 L240.283019,161.066957 C241.226415,161.066957 241.981132,161.353043 242.641509,162.02058 C243.301887,162.688116 243.584906,163.546377 243.584906,164.404638 L243.584906,164.404638 Z M240.283019,163.737101 L206.886792,163.737101 C206.698113,163.737101 206.509434,163.832464 206.415094,163.927826 C206.320755,164.023188 206.226415,164.213913 206.226415,164.404638 L206.226415,190.057101 C206.226415,190.247826 206.320755,190.438551 206.415094,190.533913 C206.509434,190.629275 206.698113,190.724638 206.886792,190.724638 L240.283019,190.724638 C240.471698,190.724638 240.660377,190.629275 240.754717,190.533913 C240.849057,190.438551 240.943396,190.247826 240.943396,190.057101 L240.943396,164.404638 C240.943396,164.213913 240.849057,164.023188 240.754717,163.927826 C240.566038,163.832464 240.471698,163.737101 240.283019,163.737101 L240.283019,163.737101 Z M215.660377,167.646957 C216.415094,168.409855 216.792453,169.363478 216.792453,170.507826 C216.792453,171.652174 216.415094,172.605797 215.660377,173.368696 C214.90566,174.131594 213.962264,174.513043 212.830189,174.513043 C211.698113,174.513043 210.754717,174.131594 210,173.368696 C209.245283,172.605797 208.867925,171.652174 208.867925,170.507826 C208.867925,169.363478 209.245283,168.409855 210,167.646957 C210.754717,166.884058 211.698113,166.502609 212.830189,166.502609 C213.962264,166.502609 214.90566,166.884058 215.660377,167.646957 L215.660377,167.646957 Z M238.207547,178.613623 L238.207547,188.054493 L208.773585,188.054493 L208.773585,184.049275 L215.471698,177.278551 L218.773585,180.616232 L229.433962,169.84029 L238.207547,178.613623 L238.207547,178.613623 Z" id="Shape" fill="#C4CACC" sketch:type="MSShapeGroup"></path>
                <ellipse id="Oval" fill="#C6C6C6" sketch:type="MSShapeGroup" cx="12.1698113" cy="13.2553623" rx="3.67924528" ry="3.71913043"></ellipse>
                <ellipse id="Oval" fill="#C6C6C6" sketch:type="MSShapeGroup" cx="22.5471698" cy="13.2553623" rx="3.67924528" ry="3.71913043"></ellipse>
                <ellipse id="Oval" fill="#C6C6C6" sketch:type="MSShapeGroup" cx="33.8679245" cy="13.2553623" rx="3.67924528" ry="3.71913043"></ellipse>
                <g id="Group" transform="translate(72.641509, 44.820290)" sketch:type="MSShapeGroup">
                    <ellipse id="Oval" fill="#FFFFFF" cx="27.3584906" cy="27.6550725" rx="27.3584906" ry="27.6550725"></ellipse>
                    <ellipse id="Oval" fill="#FFFFFF" cx="21.0377358" cy="20.3121739" rx="1.22641509" ry="1.23971014"></ellipse>
                    <path d="M28.0188679,19.453913 C28.0188679,20.1214493 27.4528302,20.6936232 26.7924528,20.6936232 C26.1320755,20.6936232 25.5660377,20.1214493 25.5660377,19.453913 C25.5660377,18.7863768 26.1320755,18.2142029 26.7924528,18.2142029 C27.4528302,18.3095652 28.0188679,18.7863768 28.0188679,19.453913 L28.0188679,19.453913 Z" id="Shape" fill="#FFFFFF"></path>
                    <path d="M28.0188679,24.3173913 C28.0188679,24.9849275 27.4528302,25.5571014 26.7924528,25.5571014 C26.1320755,25.5571014 25.5660377,24.9849275 25.5660377,24.3173913 C25.5660377,23.6498551 26.1320755,23.0776812 26.7924528,23.0776812 C27.4528302,23.1730435 28.0188679,23.6498551 28.0188679,24.3173913 L28.0188679,24.3173913 Z" id="Shape" fill="#FFFFFF"></path>
                    <path d="M28.0188679,29.7530435 C28.0188679,30.4205797 27.4528302,30.9927536 26.7924528,30.9927536 C26.1320755,30.9927536 25.5660377,30.4205797 25.5660377,29.7530435 C25.5660377,29.0855072 26.1320755,28.5133333 26.7924528,28.5133333 C27.4528302,28.6086957 28.0188679,29.0855072 28.0188679,29.7530435 L28.0188679,29.7530435 Z" id="Shape" fill="#FFFFFF"></path>
                    <ellipse id="Oval" fill="#FFFFFF" cx="21.509434" cy="26.5107246" rx="0.754716981" ry="0.762898551"></ellipse>
                    <ellipse id="Oval" fill="#FFFFFF" cx="21.509434" cy="29.3715942" rx="0.754716981" ry="0.762898551"></ellipse>
                    <g transform="translate(8.490566, 12.397101)">
                        <path d="M34.8113208,14.1136232 C34.5283019,13.8275362 33.7735849,13.16 33.2075472,12.7785507 L11.7924528,0.476811594 C11.1320755,0.0953623188 10.0943396,-1.14630527e-14 9.33962264,0.762898551 C8.58490566,1.5257971 8.67924528,2.47942029 9.05660377,3.24231884 L21.2264151,24.9849275 C21.509434,25.4617391 22.2641509,26.4153623 22.5471698,26.7014493 C25.9433962,30.1344928 31.509434,30.1344928 34.9056604,26.7014493 C38.3018868,23.1730435 38.3018868,17.642029 34.8113208,14.1136232 L34.8113208,14.1136232 Z" id="Shape" fill="#F5A9CA"></path>
                        <path d="M28.0188679,0.762898551 C27.2641509,-9.15933995e-16 26.2264151,0.190724638 25.5660377,0.476811594 L4.24528302,12.7785507 C3.58490566,13.16 2.73584906,13.9228986 2.45283019,14.2089855 C-0.943396226,17.642029 -0.943396226,23.2684058 2.45283019,26.7014493 C5.8490566,30.1344928 11.4150943,30.1344928 14.8113208,26.7014493 C15.0943396,26.4153623 15.754717,25.5571014 16.0377358,25.1756522 L28.3018868,3.33768116 C28.6792453,2.67014493 28.7735849,1.5257971 28.0188679,0.762898551 L28.0188679,0.762898551 Z" id="Shape" fill="#54B9E5"></path>
                        <path d="M18.6792453,20.4075362 L25.4716981,8.39188406 L18.6792453,4.48202899 L11.8867925,8.39188406 L18.6792453,20.4075362 Z" id="Shape" fill="#4F7DB9"></path>
                        <ellipse id="Oval" fill="#25A8E0" cx="8.77358491" cy="20.3121739" rx="8.77358491" ry="8.86869565"></ellipse>
                        <ellipse id="Oval" fill="#F072AB" cx="28.5849057" cy="20.3121739" rx="8.77358491" ry="8.86869565"></ellipse>
                        <g transform="translate(24.528302, 16.211594)">
                            <ellipse id="Oval" fill="#FFFFFF" cx="4.62264151" cy="4.67275362" rx="4.62264151" ry="4.67275362"></ellipse>
                            <path d="M4.24528302,2.09797101 C2.35849057,2.09797101 0.849056604,3.71913043 0.849056604,4.38666667 C0.849056604,4.5773913 0.943396226,4.67275362 1.13207547,4.86347826 C1.32075472,4.48202899 1.50943396,4.19594203 1.79245283,3.90985507 C2.0754717,3.62376812 2.45283019,3.33768116 2.83018868,3.14695652 C2.0754717,3.90985507 2.0754717,5.14956522 2.83018868,6.00782609 C3.58490566,6.77072464 4.81132075,6.77072464 5.66037736,6.00782609 C6.41509434,5.24492754 6.41509434,3.90985507 5.66037736,3.14695652 C5.56603774,3.0515942 5.56603774,3.0515942 5.47169811,2.95623188 C6.03773585,3.14695652 6.50943396,3.43304348 6.98113208,3.90985507 C7.26415094,4.19594203 7.35849057,4.38666667 7.54716981,4.67275362 C7.64150943,4.5773913 7.64150943,4.48202899 7.64150943,4.38666667 C7.64150943,3.71913043 6.13207547,2.09797101 4.24528302,2.09797101 L4.24528302,2.09797101 Z M5.47169811,4.00521739 C5.47169811,4.29130435 5.28301887,4.5773913 4.90566038,4.5773913 C4.62264151,4.5773913 4.33962264,4.38666667 4.33962264,4.00521739 C4.33962264,3.71913043 4.52830189,3.43304348 4.90566038,3.43304348 C5.18867925,3.5284058 5.47169811,3.71913043 5.47169811,4.00521739 L5.47169811,4.00521739 Z" id="Shape" fill="#F072AB"></path>
                        </g>
                        <g transform="translate(3.773585, 16.211594)">
                            <ellipse id="Oval" fill="#FFFFFF" cx="4.62264151" cy="4.67275362" rx="4.62264151" ry="4.67275362"></ellipse>
                            <path d="M4.62264151,2.09797101 C2.73584906,2.09797101 1.22641509,3.71913043 1.22641509,4.38666667 C1.22641509,4.5773913 1.32075472,4.67275362 1.50943396,4.86347826 C1.69811321,4.48202899 1.88679245,4.19594203 2.16981132,3.90985507 C2.45283019,3.62376812 2.83018868,3.33768116 3.20754717,3.14695652 C2.45283019,3.90985507 2.45283019,5.14956522 3.20754717,6.00782609 C3.96226415,6.77072464 5.28301887,6.77072464 6.03773585,6.00782609 C6.79245283,5.24492754 6.79245283,3.90985507 6.03773585,3.14695652 C5.94339623,3.0515942 5.94339623,3.0515942 5.8490566,2.95623188 C6.41509434,3.14695652 6.98113208,3.43304348 7.35849057,3.90985507 C7.64150943,4.19594203 7.73584906,4.38666667 7.9245283,4.67275362 C8.01886792,4.5773913 8.01886792,4.48202899 8.01886792,4.38666667 C8.01886792,3.71913043 6.50943396,2.09797101 4.62264151,2.09797101 L4.62264151,2.09797101 Z M5.8490566,4.00521739 C5.8490566,4.29130435 5.66037736,4.5773913 5.28301887,4.5773913 C5,4.5773913 4.71698113,4.38666667 4.71698113,4.00521739 C4.71698113,3.71913043 5,3.43304348 5.28301887,3.43304348 C5.56603774,3.5284058 5.8490566,3.71913043 5.8490566,4.00521739 L5.8490566,4.00521739 Z" id="Shape" fill="#25A8E0"></path>
                        </g>
                    </g>
                </g>
                <rect id="Rectangle-path" fill="#E9EEF1" sketch:type="MSShapeGroup" x="71.6981132" y="228.869565" width="141.509434" height="4.76811594"></rect>
                <rect id="Rectangle-path" fill="#E9EEF1" sketch:type="MSShapeGroup" x="233.018868" y="228.869565" width="141.509434" height="4.76811594"></rect>
                <rect id="Rectangle-path" fill="#E9EEF1" sketch:type="MSShapeGroup" x="71.6981132" y="246.988406" width="141.509434" height="4.76811594"></rect>
                <rect id="Rectangle-path" fill="#E9EEF1" sketch:type="MSShapeGroup" x="233.018868" y="246.988406" width="141.509434" height="4.76811594"></rect>
                <rect id="Rectangle-path" fill="#E9EEF1" sketch:type="MSShapeGroup" x="71.6981132" y="264.153623" width="141.509434" height="4.76811594"></rect>
                <rect id="Rectangle-path" fill="#E9EEF1" sketch:type="MSShapeGroup" x="233.018868" y="264.153623" width="141.509434" height="4.76811594"></rect>
                <rect id="Rectangle-path" fill="#E9EEF1" sketch:type="MSShapeGroup" x="71.6981132" y="281.318841" width="141.509434" height="4.76811594"></rect>
                <rect id="Rectangle-path" fill="#E9EEF1" sketch:type="MSShapeGroup" x="233.018868" y="281.318841" width="141.509434" height="4.76811594"></rect>
                <rect id="Rectangle-path" fill="#E9EEF1" sketch:type="MSShapeGroup" x="71.6981132" y="297.530435" width="141.509434" height="4.76811594"></rect>
                <rect id="Rectangle-path" fill="#FFFFFF" sketch:type="MSShapeGroup" x="138.679245" y="63.8927536" width="188.679245" height="7.62898551"></rect>
                <rect id="Rectangle-path" fill="#FFFFFF" sketch:type="MSShapeGroup" x="138.679245" y="78.1971014" width="188.679245" height="3.81449275"></rect>
            </g>
        </g>
    </g>
</svg>