<?xml version="1.0" encoding="UTF-8" standalone="no"?>
<svg width="141px" height="141px" viewBox="0 0 141 141" version="1.1" xmlns="http://www.w3.org/2000/svg" xmlns:xlink="http://www.w3.org/1999/xlink" xmlns:sketch="http://www.bohemiancoding.com/sketch/ns">
    <!-- Generator: Sketch 3.1 (8751) - http://www.bohemiancoding.com/sketch -->
    <title>publish_share</title>
    <desc>Created with Sketch.</desc>
    <defs></defs>
    <g id="Page-1" stroke="none" stroke-width="1" fill="none" fill-rule="evenodd" sketch:type="MSPage">
        <g id="Artboard-6" sketch:type="MSArtboardGroup" transform="translate(-649.000000, -2477.000000)">
            <g id="publish_share" sketch:type="MSLayerGroup" transform="translate(642.000000, 2470.000000)">
                <g id="Group"></g>
                <g id="Group" transform="translate(7.750000, 7.750000)" fill="#34B68F" sketch:type="MSShapeGroup">
                    <path d="M69.6446,42.69165 C84.38355,42.69165 96.3325,54.63285 96.3325,69.36405 C96.3325,84.09525 84.38355,96.03645 69.6446,96.03645 C54.90565,96.03645 42.9567,84.09525 42.9567,69.36405 C42.95825,54.63285 54.90565,42.69165 69.6446,42.69165 L69.6446,42.69165 Z" id="Shape"></path>
                    <path d="M139.34035,69.6942 C139.34035,75.73145 134.4439,80.6248 128.40355,80.6248 C122.3632,80.6248 117.46675,75.73145 117.46675,69.6942 C117.46675,63.65695 122.3632,58.7636 128.40355,58.7636 C134.4439,58.7636 139.34035,63.65695 139.34035,69.6942 L139.34035,69.6942 Z" id="Shape"></path>
                    <path d="M21.87205,69.6942 C21.87205,75.73145 16.9756,80.6248 10.93525,80.6248 C4.8949,80.6248 -0.00155,75.73145 -0.00155,69.6942 C-0.00155,63.65695 4.8949,58.7636 10.93525,58.7636 C16.9756,58.7636 21.87205,63.65695 21.87205,69.6942 L21.87205,69.6942 Z" id="Shape"></path>
                    <path d="M114.3559,69.69265 C114.3559,71.14965 113.1748,72.33075 111.71625,72.33075 C110.2577,72.33075 109.0766,71.14965 109.0766,69.69265 C109.0766,68.23565 110.2577,67.05455 111.71625,67.05455 C113.17325,67.05455 114.3559,68.23565 114.3559,69.69265 L114.3559,69.69265 Z" id="Shape"></path>
                    <path d="M105.1675,69.69265 C105.1675,71.14965 103.9864,72.33075 102.52785,72.33075 C101.07085,72.33075 99.8882,71.14965 99.8882,69.69265 C99.8882,68.23565 101.07085,67.05455 102.52785,67.05455 C103.9864,67.05455 105.1675,68.23565 105.1675,69.69265 L105.1675,69.69265 Z" id="Shape"></path>
                    <path d="M39.67535,69.69265 C39.67535,71.14965 38.4927,72.33075 37.0357,72.33075 C35.5787,72.33075 34.39605,71.14965 34.39605,69.69265 C34.39605,68.23565 35.5787,67.05455 37.0357,67.05455 C38.4927,67.05455 39.67535,68.23565 39.67535,69.69265 L39.67535,69.69265 Z" id="Shape"></path>
                    <path d="M30.48695,69.69265 C30.48695,71.14965 29.30585,72.33075 27.8473,72.33075 C26.38875,72.33075 25.20765,71.14965 25.20765,69.69265 C25.20765,68.23565 26.38875,67.05455 27.8473,67.05455 C29.30585,67.05455 30.48695,68.23565 30.48695,69.69265 L30.48695,69.69265 Z" id="Shape"></path>
                    <path d="M69.6725,0.0589 C75.71285,0.0589 80.6093,4.9538 80.6093,10.99105 C80.6093,17.0283 75.71285,21.92165 69.6725,21.92165 C63.63215,21.92165 58.7357,17.0283 58.7357,10.99105 C58.7357,4.9538 63.63215,0.0589 69.6725,0.0589 L69.6725,0.0589 Z" id="Shape"></path>
                    <path d="M69.6725,117.46055 C75.71285,117.46055 80.6093,122.3539 80.6093,128.3927 C80.6093,134.42995 75.71285,139.3233 69.6725,139.3233 C63.63215,139.3233 58.7357,134.42995 58.7357,128.3927 C58.7357,122.3539 63.63215,117.46055 69.6725,117.46055 L69.6725,117.46055 Z" id="Shape"></path>
                    <path d="M69.6694,25.03095 C71.1264,25.03095 72.30905,26.2136 72.30905,27.66905 C72.30905,29.12605 71.1264,30.30715 69.6694,30.30715 C68.2124,30.30715 67.02975,29.1276 67.02975,27.66905 C67.02975,26.21205 68.2124,25.03095 69.6694,25.03095 L69.6694,25.03095 Z" id="Shape"></path>
                    <path d="M69.6694,34.21315 C71.1264,34.21315 72.30905,35.39425 72.30905,36.85125 C72.30905,38.30825 71.1264,39.48935 69.6694,39.48935 C68.2124,39.48935 67.02975,38.30825 67.02975,36.85125 C67.02975,35.39425 68.2124,34.21315 69.6694,34.21315 L69.6694,34.21315 Z" id="Shape"></path>
                    <path d="M69.6694,99.6681 C71.1264,99.6681 72.30905,100.8492 72.30905,102.3062 C72.30905,103.7632 71.1264,104.9443 69.6694,104.9443 C68.2124,104.9443 67.02975,103.7632 67.02975,102.3062 C67.02975,100.8492 68.2124,99.6681 69.6694,99.6681 L69.6694,99.6681 Z" id="Shape"></path>
                    <path d="M69.6694,108.8503 C71.1264,108.8503 72.30905,110.0314 72.30905,111.4884 C72.30905,112.9454 71.1264,114.1265 69.6694,114.1265 C68.2124,114.1265 67.02975,112.9454 67.02975,111.4884 C67.02975,110.0314 68.2124,108.8503 69.6694,108.8503 L69.6694,108.8503 Z" id="Shape"></path>
                    <path d="M118.93615,20.45845 C123.20795,24.7256 123.20795,31.6479 118.93615,35.9166 C114.66435,40.18685 107.73895,40.18685 103.4687,35.9166 C99.1969,31.6479 99.1969,24.7256 103.4687,20.45845 C107.7405,16.1882 114.6659,16.1882 118.93615,20.45845 L118.93615,20.45845 Z" id="Shape"></path>
                    <path d="M35.87475,103.4718 C40.14655,107.7405 40.14655,114.66125 35.87475,118.92995 C31.60295,123.19865 24.67755,123.19865 20.4073,118.92995 C16.1355,114.66125 16.1355,107.73895 20.4073,103.4718 C24.67755,99.2031 31.60295,99.2031 35.87475,103.4718 L35.87475,103.4718 Z" id="Shape"></path>
                    <path d="M101.2677,38.11295 C102.29845,39.1437 102.29845,40.81305 101.2677,41.84225 C100.23695,42.873 98.56605,42.873 97.5353,41.84225 C96.50455,40.8115 96.50455,39.14215 97.5353,38.11295 C98.56605,37.0822 100.23695,37.0822 101.2677,38.11295 L101.2677,38.11295 Z" id="Shape"></path>
                    <path d="M94.77165,44.6059 C95.8024,45.63665 95.8024,47.30755 94.77165,48.33675 C93.7409,49.3675 92.07,49.3675 91.03925,48.33675 C90.0085,47.30755 90.0085,45.63665 91.03925,44.6059 C92.06845,43.5736 93.7409,43.5736 94.77165,44.6059 L94.77165,44.6059 Z" id="Shape"></path>
                    <path d="M48.46075,90.8889 C49.4915,91.91965 49.4915,93.59055 48.46075,94.61975 C47.43,95.6505 45.7591,95.6505 44.72835,94.61975 C43.6976,93.589 43.6976,91.91965 44.72835,90.8889 C45.75755,89.8597 47.43,89.8597 48.46075,90.8889 L48.46075,90.8889 Z" id="Shape"></path>
                    <path d="M41.96315,97.38185 C42.9939,98.4126 42.9939,100.0835 41.96315,101.11425 C40.9324,102.145 39.2615,102.145 38.23075,101.11425 C37.2,100.0835 37.2,98.4126 38.23075,97.38185 C39.2615,96.35265 40.93395,96.35265 41.96315,97.38185 L41.96315,97.38185 Z" id="Shape"></path>
                    <path d="M20.4073,20.45225 C24.6791,16.18355 31.6045,16.18355 35.87475,20.45225 C40.14655,24.72095 40.14655,31.6417 35.87475,35.91195 C31.60295,40.18065 24.67755,40.18065 20.4073,35.91195 C16.1355,31.6417 16.1355,24.72095 20.4073,20.45225 L20.4073,20.45225 Z" id="Shape"></path>
                    <path d="M103.4687,103.46715 C107.7405,99.19845 114.66435,99.19845 118.93615,103.46715 C123.20795,107.73585 123.20795,114.6566 118.93615,118.92685 C114.66435,123.194 107.73895,123.194 103.4687,118.92685 C99.1969,114.6566 99.1969,107.73585 103.4687,103.46715 L103.4687,103.46715 Z" id="Shape"></path>
                    <path d="M38.07265,38.1114 C39.1034,37.08065 40.7743,37.08065 41.80505,38.1114 C42.8358,39.14215 42.8358,40.8115 41.80505,41.8407 C40.7743,42.87145 39.10185,42.87145 38.07265,41.8407 C37.04035,40.8115 37.04035,39.14215 38.07265,38.1114 L38.07265,38.1114 Z" id="Shape"></path>
                    <path d="M44.5687,44.6028 C45.59945,43.57205 47.27035,43.57205 48.3011,44.6028 C49.33185,45.63355 49.33185,47.30445 48.3011,48.33365 C47.27035,49.3644 45.59945,49.3644 44.5687,48.33365 C43.53795,47.30445 43.53795,45.63355 44.5687,44.6028 L44.5687,44.6028 Z" id="Shape"></path>
                    <path d="M90.8796,90.8889 C91.91035,89.85815 93.58125,89.85815 94.612,90.8889 C95.64275,91.9181 95.64275,93.58745 94.612,94.61975 C93.58125,95.6505 91.91035,95.6505 90.8796,94.61975 C89.84885,93.58745 89.84885,91.9181 90.8796,90.8889 L90.8796,90.8889 Z" id="Shape"></path>
                    <path d="M97.37565,97.3803 C98.4064,96.34955 100.0773,96.34955 101.10805,97.3803 C102.1388,98.41105 102.1388,100.08195 101.10805,101.1127 C100.0773,102.14345 98.4064,102.14345 97.37565,101.1127 C96.3449,100.08195 96.3449,98.41105 97.37565,97.3803 L97.37565,97.3803 Z" id="Shape"></path>
                </g>
            </g>
        </g>
    </g>
</svg>